<svg width="34" height="34" viewBox="0 0 34 34" fill="none" xmlns="http://www.w3.org/2000/svg">
<circle cx="17" cy="17" r="16.5" stroke="#1F1D22"/>
<path d="M17 11.4C15.5272 11.4 14.3333 12.6536 14.3333 14.2C14.3333 15.7464 15.5272 17 17 17C18.4728 17 19.6667 15.7464 19.6667 14.2C19.6667 12.6536 18.4728 11.4 17 11.4ZM13 14.2C13 11.8804 14.7909 10 17 10C19.2091 10 21 11.8804 21 14.2C21 16.5196 19.2091 18.4 17 18.4C14.7909 18.4 13 16.5196 13 14.2ZM14.3333 21.2C13.2288 21.2 12.3333 22.1402 12.3333 23.3C12.3333 23.6866 12.0349 24 11.6667 24C11.2985 24 11 23.6866 11 23.3C11 21.367 12.4924 19.8 14.3333 19.8H19.6667C21.5076 19.8 23 21.367 23 23.3C23 23.6866 22.7015 24 22.3333 24C21.9651 24 21.6667 23.6866 21.6667 23.3C21.6667 22.1402 20.7712 21.2 19.6667 21.2H14.3333Z" fill="#1F1D22"/>
</svg>
