<svg width="34" height="34" viewBox="0 0 34 34" fill="none" xmlns="http://www.w3.org/2000/svg">
<circle cx="17" cy="17" r="16.5" stroke="#1F1D22"/>
<path d="M15.6 11.4C13.2804 11.4 11.4 13.2804 11.4 15.6C11.4 17.9196 13.2804 19.8 15.6 19.8C17.9196 19.8 19.8 17.9196 19.8 15.6C19.8 13.2804 17.9196 11.4 15.6 11.4ZM10 15.6C10 12.5072 12.5072 10 15.6 10C18.6928 10 21.2 12.5072 21.2 15.6C21.2 16.8941 20.761 18.0857 20.0239 19.0339L23.795 22.805C24.0683 23.0784 24.0683 23.5216 23.795 23.795C23.5216 24.0683 23.0784 24.0683 22.805 23.795L19.0339 20.0239C18.0857 20.761 16.8941 21.2 15.6 21.2C12.5072 21.2 10 18.6928 10 15.6Z" fill="#1F1D22"/>
</svg>
