<svg width="34" height="34" viewBox="0 0 34 34" fill="none" xmlns="http://www.w3.org/2000/svg">
<circle cx="17" cy="17" r="16.5" stroke="#1F1D22"/>
<path d="M11.4995 11.4001L12.8064 19.895C12.8159 19.9651 12.8358 20.0319 12.8645 20.0939C12.9508 20.2803 13.1167 20.4223 13.3186 20.4763C13.3803 20.4929 13.4449 20.5012 13.511 20.5H21.2C21.5091 20.5 21.7816 20.2973 21.8705 20.0012L23.9705 13.0012C24.0341 12.7893 23.9937 12.5598 23.8616 12.3822C23.7295 12.2047 23.5213 12.1001 23.3 12.1001H13.0236L12.7934 10.6036C12.7848 10.5411 12.7679 10.4811 12.7439 10.425C12.7003 10.3227 12.6335 10.2342 12.551 10.1647C12.4745 10.1002 12.3839 10.0518 12.2846 10.0247C12.222 10.0076 12.1564 9.99898 12.0893 10.0001H10.7C10.3134 10.0001 10 10.3135 10 10.7001C10 11.0867 10.3134 11.4001 10.7 11.4001H11.4995ZM14.1006 19.1L13.239 13.5001H22.3592L20.6792 19.1H14.1006Z" fill="#1F1D22"/>
<path d="M15.6 22.6C15.6 23.3732 14.9732 24 14.2 24C13.4268 24 12.8 23.3732 12.8 22.6C12.8 21.8268 13.4268 21.2 14.2 21.2C14.9732 21.2 15.6 21.8268 15.6 22.6Z" fill="#1F1D22"/>
<path d="M21.9 22.6C21.9 23.3732 21.2732 24 20.5 24C19.7268 24 19.1 23.3732 19.1 22.6C19.1 21.8268 19.7268 21.2 20.5 21.2C21.2732 21.2 21.9 21.8268 21.9 22.6Z" fill="#1F1D22"/>
</svg>
