<svg width="97" height="24" viewBox="0 0 97 24" fill="none" xmlns="http://www.w3.org/2000/svg">
<path d="M5.22183 23.8425C4.12359 23.8425 3.18076 23.685 2.39334 23.3701C1.62664 23.0551 1.03608 22.4987 0.621647 21.7008C0.207216 20.9029 0 19.7795 0 18.3307V17.2283C0.642369 17.2283 1.27438 17.2283 1.89602 17.2283C2.51767 17.2283 3.13932 17.2283 3.76096 17.2283V18.6457C3.76096 19.4226 3.82313 20.021 3.94746 20.4409C4.07179 20.8399 4.24792 21.1234 4.47586 21.2913C4.7038 21.4383 4.97318 21.5118 5.284 21.5118C5.7606 21.5118 6.13358 21.3438 6.40296 21.0079C6.69307 20.6509 6.83812 19.9685 6.83812 18.9606C6.83812 18.1837 6.71379 17.6063 6.46513 17.2283C6.23719 16.8294 5.8642 16.5144 5.34616 16.2835C4.82813 16.0315 4.16503 15.727 3.35689 15.3701C2.63164 15.0551 2.03071 14.6772 1.55412 14.2362C1.07752 13.7953 0.725255 13.2388 0.497318 12.5669C0.26938 11.895 0.155412 11.0761 0.155412 10.1102C0.155412 8.89239 0.310824 7.90551 0.621647 7.14961C0.953192 6.3937 1.49195 5.84777 2.23793 5.51181C3.00463 5.15486 4.03034 4.97638 5.31508 4.97638C6.97281 4.97638 8.23682 5.34383 9.10713 6.07874C9.99816 6.79265 10.4437 7.87402 10.4437 9.32283V11.5591C9.84275 11.5591 9.24182 11.5591 8.64089 11.5591C8.06069 11.5591 7.45976 11.5591 6.83812 11.5591V10.4252C6.83812 9.48032 6.72415 8.8189 6.49621 8.44094C6.289 8.06299 5.90565 7.87402 5.34616 7.87402C4.8074 7.87402 4.42405 8.042 4.19612 8.37795C3.96818 8.71391 3.85421 9.25984 3.85421 10.0157C3.85421 10.7087 3.9889 11.2546 4.25828 11.6535C4.54838 12.0315 4.91101 12.3255 5.34616 12.5354C5.78132 12.7244 6.24755 12.9134 6.74487 13.1024C7.65662 13.4593 8.4026 13.8268 8.9828 14.2047C9.563 14.5617 9.98779 15.0656 10.2572 15.7165C10.5266 16.3465 10.6612 17.2598 10.6612 18.4567C10.6612 19.8005 10.4333 20.8714 9.97744 21.6693C9.54228 22.4462 8.91027 23.0026 8.08141 23.3386C7.27327 23.6745 6.32008 23.8425 5.22183 23.8425Z" fill="#1F1D22"/>
<path d="M19.9743 23.622L16.462 13.9528L19.9121 5.00787H23.7663L20.0054 13.9528L23.8907 23.622H19.9743ZM12.701 23.622V5.00787H16.3066V23.622H12.701Z" fill="#1F1D22"/>
<path d="M25.4496 23.622V5.00787H29.0552V23.622H25.4496Z" fill="#1F1D22"/>
<path d="M31.6722 23.622V5.00787H34.8115L38.6346 16.2835V5.00787H41.805V23.622H38.6657L34.8426 13.1024V23.622H31.6722Z" fill="#1F1D22"/>
<path d="M44.3905 23.622V5.00787H52.8449V7.59055H48.1514V12.5669H52.13V15.4331H48.1514V23.622H44.3905Z" fill="#1F1D22"/>
<path d="M59.4996 24C58.4843 24 57.5933 23.874 56.8265 23.622C56.0599 23.3911 55.4589 22.8976 55.0238 22.1417C54.6093 21.3648 54.4021 20.2205 54.4021 18.7087V8.94488C54.4021 7.83202 54.6093 6.97113 55.0238 6.3622C55.4589 5.75328 56.0599 5.33333 56.8265 5.10236C57.614 4.85039 58.5154 4.72441 59.5307 4.72441C60.5253 4.72441 61.406 4.85039 62.1727 5.10236C62.9601 5.35433 63.5714 5.78478 64.0066 6.3937C64.4624 7.00262 64.6904 7.85302 64.6904 8.94488V18.6772C64.6904 20.21 64.4624 21.3648 64.0066 22.1417C63.5714 22.8976 62.9601 23.3911 62.1727 23.622C61.406 23.874 60.515 24 59.4996 24ZM59.4996 21.8583C59.8105 21.8583 60.0798 21.8058 60.3078 21.7008C60.5564 21.5958 60.7429 21.4173 60.8673 21.1654C61.0123 20.8924 61.0848 20.5249 61.0848 20.063V8.7874C61.0848 8.32546 61.0123 7.9685 60.8673 7.71654C60.7429 7.44357 60.5564 7.25459 60.3078 7.14961C60.0798 7.04462 59.8105 6.99213 59.4996 6.99213C59.1888 6.99213 58.9194 7.04462 58.6915 7.14961C58.4636 7.25459 58.2771 7.44357 58.132 7.71654C58.0077 7.9685 57.9455 8.32546 57.9455 8.7874V20.063C57.9455 20.5249 58.0077 20.8924 58.132 21.1654C58.2771 21.4173 58.4636 21.5958 58.6915 21.7008C58.9194 21.8058 59.1888 21.8583 59.4996 21.8583Z" fill="#1F1D22"/>
<path d="M67.0951 23.622V5.00787H73.8089C75.0315 5.00787 75.9536 5.29134 76.5753 5.85827C77.1969 6.4042 77.5077 7.1706 77.5077 8.15748V11.0551C77.5077 12.042 77.2487 12.8714 76.7307 13.5433C76.2126 14.2152 75.4045 14.6037 74.3062 14.7087C75.0108 14.8136 75.5081 15.0551 75.7982 15.4331C76.109 15.79 76.3784 16.378 76.6063 17.1968L78.3469 23.622H74.3373L73.0008 17.4488C72.8764 16.9449 72.7314 16.5249 72.5656 16.189C72.4206 15.832 72.203 15.6535 71.9129 15.6535H70.8561V23.622H67.0951ZM70.8561 13.1024H72.3481C72.9283 13.1024 73.3427 12.9449 73.5913 12.6299C73.84 12.294 73.9643 11.769 73.9643 11.0551V8.8189C73.9643 8.14698 73.8504 7.67454 73.6224 7.40157C73.3945 7.12861 73.0422 6.99213 72.5656 6.99213H70.8561V13.1024Z" fill="#1F1D22"/>
<path d="M80.1473 23.622V5.00787H83.7528V23.622H80.1473Z" fill="#1F1D22"/>
<path d="M85.313 23.622L88.6078 5.00787H93.7674L97 23.622H92.9593L92.3998 20.189H89.7267L89.1983 23.622H85.313ZM89.7889 18.3622H92.3687L91.0944 8.25197L89.7889 18.3622Z" fill="#1F1D22"/>
<path d="M25.156 1.10249C25.1559 0.806574 25.2767 0.52306 25.491 0.31574C25.7054 0.108421 25.9953 -0.00529075 26.2957 0.000189276C26.6515 -0.0016724 26.9911 0.146995 27.2281 0.408451C27.4652 0.146995 27.8048 -0.0016724 28.1606 0.000189276C28.461 -0.00529075 28.7509 0.108421 28.9653 0.31574C29.1796 0.52306 29.3003 0.806574 29.3003 1.10249C29.3003 2.19582 27.9785 3.02132 27.2281 3.67454C26.4795 3.01581 25.156 2.19664 25.156 1.10249Z" fill="#1F1D22"/>
<path d="M79.5501 1.10249C79.55 0.806574 79.6708 0.52306 79.8851 0.31574C80.0995 0.108421 80.3894 -0.00529075 80.6898 0.000189276C81.0456 -0.0016724 81.3852 0.146995 81.6223 0.408451C81.8593 0.146995 82.1989 -0.0016724 82.5547 0.000189276C82.8551 -0.00529075 83.145 0.108421 83.3594 0.31574C83.5737 0.52306 83.6945 0.806574 83.6944 1.10249C83.6944 2.19582 82.3726 3.02132 81.6223 3.67454C80.8736 3.01581 79.5501 2.19664 79.5501 1.10249Z" fill="#1F1D22"/>
</svg>
